; NON-PLATED HOLES START AT T1
; THROUGH (PLATED) HOLES START AT T100
M48
INCH
T100C0.041000
T101C0.039370
T102C0.015748
T103C0.040278
T104C0.035000
T105C0.038000
%
T100
X021786Y005986
X020786Y003986
X019786Y005986
T101
X010250Y003979
X004975Y018152
X004935Y013624
X023951Y015908
X004345Y003979
X014069Y014963
X003990Y018152
X023951Y013939
X003006Y018152
X004935Y015593
X003360Y003979
X004935Y016577
X014187Y003979
X005329Y003979
X002376Y003979
X012219Y003979
X014069Y012994
X007927Y018152
X016156Y003979
X001038Y018152
X023951Y008034
X023951Y014923
X023951Y012955
X014069Y015947
X011234Y003979
X023951Y010986
X023951Y011971
X013203Y003979
X006313Y003979
X001392Y003979
X007297Y003979
X008282Y003979
X023951Y010002
X009266Y003979
X004935Y012640
X014069Y012010
X015171Y003979
X005959Y018152
X014069Y013978
X006943Y018152
X002022Y018152
X004935Y014608
X023951Y009018
T102
X008203Y011459
X009384Y015553
X009420Y002325
X008282Y006892
X016156Y005908
X018715Y010868
X006904Y014608
X015171Y005317
X003872Y005396
X015604Y018230
X011786Y009923
X015801Y003034
X024896Y007246
X010644Y001813
X008282Y009845
X009187Y009963
X022416Y010041
X007560Y010814
X014856Y018191
X018597Y003860
X026077Y011892
T103
X019027Y020003
X021027Y020003
X010427Y020003
X016427Y020003
X023027Y020003
X018027Y001003
X013427Y020003
X015027Y001003
X014427Y020003
X016027Y001003
X025027Y020003
X015427Y020003
X023027Y001003
X024027Y001003
X011027Y001003
X018027Y020003
X009427Y020003
X021027Y001003
X020027Y001003
X020027Y020003
X024027Y020003
X012427Y020003
X025027Y001003
X007427Y020003
X014027Y001003
X022027Y020003
X011427Y020003
X022027Y001003
X008427Y020003
X012027Y001003
X013027Y001003
X017027Y001003
T104
X001683Y001656
X005683Y001656
T105
X025014Y005081
X025014Y004097
T00
M30
