G04 MADE WITH FRITZING*
G04 WWW.FRITZING.ORG*
G04 DOUBLE SIDED*
G04 HOLES PLATED*
G04 CONTOUR ON CENTER OF CONTOUR VECTOR*
%ASAXBY*%
%FSLAX23Y23*%
%MOIN*%
%OFA0B0*%
%SFA1.0B1.0*%
%ADD10C,0.109000*%
%ADD11C,0.085000*%
%ADD12C,0.089370*%
%ADD13C,0.088000*%
%ADD14C,0.075278*%
%ADD15C,0.049370*%
%ADD16R,0.109000X0.109000*%
%LNMASK1*%
G90*
G70*
G54D10*
X1979Y599D03*
X2179Y599D03*
X2079Y399D03*
G54D11*
X568Y166D03*
X168Y166D03*
G54D12*
X494Y1658D03*
X494Y1559D03*
X494Y1461D03*
X494Y1362D03*
X494Y1264D03*
X1616Y398D03*
X1517Y398D03*
X1419Y398D03*
X1320Y398D03*
X1222Y398D03*
X1123Y398D03*
X1025Y398D03*
X927Y398D03*
X828Y398D03*
X730Y398D03*
X631Y398D03*
X533Y398D03*
X435Y398D03*
X336Y398D03*
X238Y398D03*
X139Y398D03*
X793Y1815D03*
X694Y1815D03*
X596Y1815D03*
X498Y1815D03*
X399Y1815D03*
X301Y1815D03*
X202Y1815D03*
X104Y1815D03*
G54D13*
X2501Y508D03*
X2501Y410D03*
G54D12*
X2395Y1591D03*
X2395Y1492D03*
X2395Y1394D03*
X2395Y1296D03*
X2395Y1197D03*
X2395Y1099D03*
X2395Y1000D03*
X2395Y902D03*
X2395Y803D03*
X1407Y1201D03*
X1407Y1299D03*
X1407Y1398D03*
X1407Y1496D03*
X1407Y1595D03*
G54D14*
X2103Y100D03*
X2203Y100D03*
X2303Y100D03*
X2403Y100D03*
X2503Y100D03*
X1643Y2000D03*
X1543Y2000D03*
X1443Y2000D03*
X1343Y2000D03*
X1243Y2000D03*
X1143Y2000D03*
X1043Y2000D03*
X943Y2000D03*
X843Y2000D03*
X743Y2000D03*
X2503Y2000D03*
X2403Y2000D03*
X2303Y2000D03*
X2203Y2000D03*
X2103Y2000D03*
X2003Y2000D03*
X1903Y2000D03*
X1803Y2000D03*
X1203Y100D03*
X1103Y100D03*
X1303Y100D03*
X1403Y100D03*
X1503Y100D03*
X1603Y100D03*
X1703Y100D03*
X1803Y100D03*
X2003Y100D03*
G54D15*
X1064Y181D03*
X1580Y303D03*
X2242Y1004D03*
X2490Y725D03*
X2608Y1189D03*
X1560Y1823D03*
X942Y233D03*
X1872Y1087D03*
X1517Y532D03*
X828Y985D03*
X387Y540D03*
X828Y689D03*
X756Y1081D03*
X690Y1461D03*
X938Y1555D03*
X919Y996D03*
X1179Y992D03*
X1860Y386D03*
X820Y1146D03*
X1616Y591D03*
X1486Y1819D03*
G54D16*
X2179Y599D03*
G04 End of Mask1*
M02*