G04 MADE WITH FRITZING*
G04 WWW.FRITZING.ORG*
G04 DOUBLE SIDED*
G04 HOLES PLATED*
G04 CONTOUR ON CENTER OF CONTOUR VECTOR*
%ASAXBY*%
%FSLAX23Y23*%
%MOIN*%
%OFA0B0*%
%SFA1.0B1.0*%
%ADD10C,0.099000*%
%ADD11C,0.075000*%
%ADD12C,0.079370*%
%ADD13C,0.065278*%
%ADD14C,0.078000*%
%ADD15C,0.039370*%
%ADD16R,0.099000X0.099000*%
%ADD17C,0.024000*%
%LNCOPPER0*%
G90*
G70*
G54D10*
X1979Y599D03*
X2179Y599D03*
X2079Y399D03*
G54D11*
X568Y166D03*
X168Y166D03*
G54D12*
X494Y1658D03*
X494Y1559D03*
X494Y1461D03*
X494Y1362D03*
X494Y1264D03*
X1616Y398D03*
X1517Y398D03*
X1419Y398D03*
X1320Y398D03*
X1222Y398D03*
X1123Y398D03*
X1025Y398D03*
X927Y398D03*
X828Y398D03*
X730Y398D03*
X631Y398D03*
X533Y398D03*
X435Y398D03*
X336Y398D03*
X238Y398D03*
X139Y398D03*
X2395Y1591D03*
X2395Y1492D03*
X2395Y1394D03*
X2395Y1296D03*
X2395Y1197D03*
X2395Y1099D03*
X2395Y1000D03*
X2395Y902D03*
X2395Y803D03*
X1407Y1201D03*
X1407Y1299D03*
X1407Y1398D03*
X1407Y1496D03*
X1407Y1595D03*
X793Y1815D03*
X694Y1815D03*
X596Y1815D03*
X498Y1815D03*
X399Y1815D03*
X301Y1815D03*
X202Y1815D03*
X104Y1815D03*
G54D13*
X2103Y100D03*
X2203Y100D03*
X2303Y100D03*
X2403Y100D03*
X2503Y100D03*
X1643Y2000D03*
X1543Y2000D03*
X1443Y2000D03*
X1343Y2000D03*
X1243Y2000D03*
X1143Y2000D03*
X1043Y2000D03*
X943Y2000D03*
X843Y2000D03*
X743Y2000D03*
X2503Y2000D03*
X2403Y2000D03*
X2303Y2000D03*
X2203Y2000D03*
X2103Y2000D03*
X2003Y2000D03*
X1903Y2000D03*
X1803Y2000D03*
X1203Y100D03*
X1103Y100D03*
X1303Y100D03*
X1403Y100D03*
X1503Y100D03*
X1603Y100D03*
X1703Y100D03*
X1803Y100D03*
X2003Y100D03*
G54D14*
X2501Y508D03*
X2501Y410D03*
G54D15*
X1064Y181D03*
X1580Y303D03*
X2242Y1004D03*
X2490Y725D03*
X2608Y1189D03*
X1560Y1823D03*
X1872Y1087D03*
X387Y540D03*
X828Y985D03*
X1517Y532D03*
X1616Y591D03*
X820Y1146D03*
X942Y233D03*
X690Y1461D03*
X756Y1081D03*
X828Y689D03*
X1860Y386D03*
X1179Y992D03*
X919Y996D03*
X938Y1555D03*
X1486Y1819D03*
G54D16*
X2179Y599D03*
G54D17*
X1206Y398D02*
X1222Y398D01*
D02*
X123Y398D02*
X139Y398D01*
D02*
X1421Y429D02*
X1423Y473D01*
D02*
X1423Y473D02*
X1982Y452D01*
D02*
X1982Y452D02*
X2051Y414D01*
D02*
X2002Y132D02*
X2001Y189D01*
D02*
X2001Y189D02*
X1524Y193D01*
X1524Y193D02*
X1342Y376D01*
D02*
X997Y149D02*
X1047Y173D01*
D02*
X597Y165D02*
X997Y149D01*
D02*
X694Y1846D02*
X694Y1934D01*
D02*
X694Y1934D02*
X1643Y1925D01*
D02*
X1643Y1925D02*
X1643Y1969D01*
D02*
X1801Y1969D02*
X1796Y1879D01*
D02*
X1796Y1879D02*
X1025Y1870D01*
D02*
X1025Y1870D02*
X1025Y1720D01*
D02*
X1025Y1720D02*
X595Y1720D01*
D02*
X595Y1720D02*
X596Y1784D01*
D02*
X2102Y132D02*
X2099Y240D01*
D02*
X2099Y240D02*
X1572Y241D01*
X1572Y241D02*
X1578Y285D01*
D02*
X2364Y1001D02*
X2261Y1004D01*
D02*
X2426Y1099D02*
X2494Y1098D01*
D02*
X2494Y1098D02*
X2490Y744D01*
D02*
X2426Y1196D02*
X2589Y1190D01*
D02*
X632Y429D02*
X648Y1105D01*
X648Y1105D02*
X1288Y1555D01*
D02*
X1296Y1729D02*
X1561Y1729D01*
D02*
X1561Y1729D02*
X1561Y1804D01*
D02*
X1288Y1555D02*
X1296Y1729D01*
D02*
X534Y429D02*
X550Y1142D01*
D02*
X1095Y1606D02*
X1099Y1828D01*
D02*
X1099Y1828D02*
X1467Y1820D01*
D02*
X550Y1142D02*
X1095Y1606D01*
D02*
X1872Y1106D02*
X1883Y1697D01*
D02*
X1993Y1693D02*
X2002Y1969D01*
D02*
X1883Y1697D02*
X1993Y1693D01*
D02*
X1482Y123D02*
X1340Y280D01*
D02*
X1340Y280D02*
X64Y280D01*
D02*
X64Y280D02*
X61Y532D01*
D02*
X61Y532D02*
X368Y539D01*
D02*
X1518Y700D02*
X1517Y551D01*
D02*
X1226Y708D02*
X1518Y700D01*
D02*
X844Y974D02*
X1226Y708D01*
D02*
X2476Y425D02*
X2348Y503D01*
D02*
X2348Y503D02*
X1536Y531D01*
D02*
X2364Y1591D02*
X2183Y1595D01*
D02*
X2183Y1595D02*
X2179Y926D01*
D02*
X2179Y926D02*
X2264Y926D01*
D02*
X2359Y697D02*
X2348Y503D01*
D02*
X2264Y926D02*
X2257Y776D01*
D02*
X2257Y776D02*
X2359Y697D01*
D02*
X325Y1796D02*
X470Y1677D01*
D02*
X1285Y769D02*
X1288Y1138D01*
D02*
X1616Y763D02*
X1285Y769D01*
D02*
X1288Y1138D02*
X839Y1146D01*
D02*
X2181Y630D02*
X2202Y867D01*
D02*
X2202Y867D02*
X2120Y759D01*
D02*
X2120Y759D02*
X1616Y763D01*
D02*
X1616Y763D02*
X1616Y610D01*
D02*
X2426Y1491D02*
X2494Y1489D01*
D02*
X2494Y1489D02*
X2494Y1705D01*
D02*
X2494Y1705D02*
X2111Y1712D01*
D02*
X2111Y1712D02*
X2111Y867D01*
D02*
X2111Y867D02*
X2202Y867D01*
D02*
X961Y232D02*
X1300Y214D01*
D02*
X1300Y214D02*
X1382Y123D01*
D02*
X524Y1461D02*
X671Y1461D01*
D02*
X756Y1062D02*
X754Y689D01*
D02*
X754Y689D02*
X809Y689D01*
D02*
X2503Y132D02*
X2505Y303D01*
D02*
X2505Y303D02*
X1865Y308D01*
D02*
X1865Y308D02*
X1861Y367D01*
D02*
X1160Y993D02*
X938Y996D01*
D02*
X924Y1543D02*
X620Y1280D01*
D02*
X620Y1280D02*
X524Y1268D01*
G04 End of Copper0*
M02*