G04 MADE WITH FRITZING*
G04 WWW.FRITZING.ORG*
G04 DOUBLE SIDED*
G04 HOLES PLATED*
G04 CONTOUR ON CENTER OF CONTOUR VECTOR*
%ASAXBY*%
%FSLAX23Y23*%
%MOIN*%
%OFA0B0*%
%SFA1.0B1.0*%
%ADD10C,0.078000*%
%ADD11C,0.075000*%
%ADD12C,0.079370*%
%ADD13C,0.065278*%
%ADD14C,0.039370*%
%ADD15R,0.075000X0.075000*%
%ADD16C,0.024000*%
%LNCOPPER1*%
G90*
G70*
G54D10*
X537Y1689D03*
X537Y1591D03*
X537Y1492D03*
X537Y1394D03*
X537Y1296D03*
X537Y1197D03*
X537Y1099D03*
G54D11*
X171Y788D03*
X171Y1044D03*
X348Y788D03*
X348Y1044D03*
X249Y662D03*
X649Y662D03*
X735Y1398D03*
X1135Y1398D03*
X691Y292D03*
X891Y292D03*
X2413Y583D03*
X2013Y583D03*
X736Y1496D03*
X1136Y1496D03*
X2409Y457D03*
X2009Y457D03*
X2409Y705D03*
X2009Y705D03*
G54D12*
X2309Y1721D03*
X2309Y1622D03*
X2309Y1524D03*
X2309Y1425D03*
X2309Y1327D03*
X2309Y1229D03*
X2309Y1130D03*
X2309Y1032D03*
G54D13*
X2103Y100D03*
X2203Y100D03*
X2303Y100D03*
X2403Y100D03*
X2503Y100D03*
X1643Y2000D03*
X1543Y2000D03*
X1443Y2000D03*
X1343Y2000D03*
X1243Y2000D03*
X1143Y2000D03*
X1043Y2000D03*
X943Y2000D03*
X843Y2000D03*
X743Y2000D03*
X2503Y2000D03*
X2403Y2000D03*
X2303Y2000D03*
X2203Y2000D03*
X2103Y2000D03*
X2003Y2000D03*
X1903Y2000D03*
X1803Y2000D03*
X1203Y100D03*
X1103Y100D03*
X1303Y100D03*
X1403Y100D03*
X1503Y100D03*
X1603Y100D03*
X1703Y100D03*
X1803Y100D03*
X2003Y100D03*
G54D14*
X1668Y361D03*
X1716Y289D03*
X1102Y293D03*
G54D10*
X2639Y681D03*
X2639Y583D03*
X2639Y485D03*
X2537Y681D03*
X2537Y583D03*
X2537Y485D03*
X2537Y945D03*
X2537Y847D03*
G54D15*
X691Y292D03*
G54D16*
X1243Y1496D02*
X1165Y1496D01*
D02*
X1343Y1398D02*
X1164Y1398D01*
D02*
X1343Y1969D02*
X1343Y1398D01*
D02*
X1243Y1969D02*
X1243Y1496D01*
D02*
X2639Y651D02*
X2639Y613D01*
D02*
X2639Y553D02*
X2639Y515D01*
D02*
X2640Y314D02*
X2640Y200D01*
D02*
X2640Y200D02*
X1703Y200D01*
D02*
X1703Y200D02*
X1703Y132D01*
D02*
X2639Y454D02*
X2640Y314D01*
D02*
X567Y1395D02*
X706Y1397D01*
D02*
X1901Y580D02*
X1903Y1969D01*
D02*
X1985Y582D02*
X1901Y580D01*
D02*
X1804Y457D02*
X1803Y1969D01*
D02*
X1981Y457D02*
X1804Y457D01*
D02*
X708Y1496D02*
X567Y1493D01*
D02*
X2103Y1969D02*
X2103Y1622D01*
D02*
X2103Y1622D02*
X2278Y1622D01*
D02*
X1409Y360D02*
X1404Y132D01*
D02*
X1649Y361D02*
X1409Y360D01*
D02*
X1102Y1093D02*
X1102Y312D01*
D02*
X1102Y1099D02*
X1102Y1093D01*
D02*
X567Y1099D02*
X1102Y1099D01*
D02*
X1702Y277D02*
X1526Y121D01*
D02*
X2009Y734D02*
X2003Y1969D01*
D02*
X920Y292D02*
X1083Y293D01*
D02*
X2507Y687D02*
X2437Y700D01*
D02*
X2507Y583D02*
X2442Y583D01*
D02*
X2507Y478D02*
X2437Y463D01*
G04 End of Copper1*
M02*