; NON-PLATED HOLES START AT T1
; THROUGH (PLATED) HOLES START AT T100
M48
INCH
T100C0.035000
T101C0.038000
T102C0.040278
T103C0.039370
T104C0.015748
%
T100
X024093Y004569
X011364Y014963
X020093Y004569
X002494Y006616
X020093Y007049
X001707Y007876
X006912Y002916
X020132Y005829
X007349Y013978
X024093Y007049
X007364Y014963
X011349Y013978
X006494Y006616
X001707Y010435
X024132Y005829
X008912Y002916
X003478Y010435
X003478Y007876
T101
X005368Y015908
X005368Y016892
X005368Y013939
X025368Y009451
X005368Y012955
X026392Y004845
X005368Y010986
X025368Y008467
X005368Y014923
X025368Y004845
X026392Y005829
X026392Y006813
X025368Y005829
X025368Y006813
X005368Y011971
T102
X012427Y020003
X011427Y020003
X020027Y001003
X024027Y020003
X021027Y001003
X014027Y001003
X013027Y001003
X023027Y020003
X019027Y020003
X020027Y020003
X016427Y020003
X012027Y001003
X016027Y001003
X011027Y001003
X025027Y020003
X013427Y020003
X009427Y020003
X015027Y001003
X022027Y020003
X008427Y020003
X018027Y020003
X007427Y020003
X021027Y020003
X010427Y020003
X025027Y001003
X024027Y001003
X022027Y001003
X014427Y020003
X023027Y001003
X015427Y020003
X018027Y001003
X017027Y001003
T103
X023085Y017207
X023085Y012286
X023085Y010317
X023085Y014254
X023085Y016223
X023085Y015238
X023085Y011301
X023085Y013270
T104
X011016Y002930
X016680Y003614
X017160Y002894
T00
M30
