G04 MADE WITH FRITZING*
G04 WWW.FRITZING.ORG*
G04 DOUBLE SIDED*
G04 HOLES PLATED*
G04 CONTOUR ON CENTER OF CONTOUR VECTOR*
%ASAXBY*%
%FSLAX23Y23*%
%MOIN*%
%OFA0B0*%
%SFA1.0B1.0*%
%ADD10C,0.088000*%
%ADD11C,0.085000*%
%ADD12C,0.089370*%
%ADD13C,0.075278*%
%ADD14C,0.049370*%
%ADD15R,0.085000X0.085000*%
%LNMASK0*%
G90*
G70*
G54D10*
X537Y1689D03*
X537Y1591D03*
X537Y1492D03*
X537Y1394D03*
X537Y1296D03*
X537Y1197D03*
X537Y1099D03*
G54D11*
X171Y788D03*
X171Y1044D03*
X348Y788D03*
X348Y1044D03*
X249Y662D03*
X649Y662D03*
X735Y1398D03*
X1135Y1398D03*
X691Y292D03*
X891Y292D03*
X2413Y583D03*
X2013Y583D03*
X736Y1496D03*
X1136Y1496D03*
X2409Y457D03*
X2009Y457D03*
X2409Y705D03*
X2009Y705D03*
G54D12*
X2309Y1721D03*
X2309Y1622D03*
X2309Y1524D03*
X2309Y1425D03*
X2309Y1327D03*
X2309Y1229D03*
X2309Y1130D03*
X2309Y1032D03*
G54D13*
X2103Y100D03*
X2203Y100D03*
X2303Y100D03*
X2403Y100D03*
X2503Y100D03*
X1643Y2000D03*
X1543Y2000D03*
X1443Y2000D03*
X1343Y2000D03*
X1243Y2000D03*
X1143Y2000D03*
X1043Y2000D03*
X943Y2000D03*
X843Y2000D03*
X743Y2000D03*
X2503Y2000D03*
X2403Y2000D03*
X2303Y2000D03*
X2203Y2000D03*
X2103Y2000D03*
X2003Y2000D03*
X1903Y2000D03*
X1803Y2000D03*
X1203Y100D03*
X1103Y100D03*
X1303Y100D03*
X1403Y100D03*
X1503Y100D03*
X1603Y100D03*
X1703Y100D03*
X1803Y100D03*
X2003Y100D03*
G54D14*
X1668Y361D03*
X1716Y289D03*
X1102Y293D03*
G54D10*
X2639Y681D03*
X2639Y583D03*
X2639Y485D03*
X2537Y681D03*
X2537Y583D03*
X2537Y485D03*
X2537Y945D03*
X2537Y847D03*
G54D15*
X691Y292D03*
G04 End of Mask0*
M02*