; NON-PLATED HOLES START AT T1
; THROUGH (PLATED) HOLES START AT T100
M48
INCH
T100C0.015748
T101C0.039370
T102C0.035000
T103C0.041000
T104C0.040278
T105C0.038000
%
T100
X006846Y015570
X013342Y001987
X017476Y014192
X016374Y018522
X010311Y018522
X014445Y003129
X007555Y010176
X019957Y014152
X019917Y007184
X010892Y016879
X012319Y019231
X015350Y016948
X013146Y017263
X020747Y004184
X018067Y003129
X018101Y003719
X010901Y012538
X022512Y001944
X024593Y003089
X013618Y018522
X012083Y004231
X017476Y006003
X017476Y010255
X024666Y008491
X019944Y010251
X016531Y003719
X005744Y016081
X010901Y014507
X021846Y003129
X013657Y019231
X007752Y017538
X018106Y004231
X008084Y007242
X013500Y006633
X010311Y016908
X016267Y008405
T101
X013067Y010373
X010705Y004940
X013067Y011357
X013067Y014310
X013067Y012341
X016610Y004940
X022870Y015255
X005586Y008207
X004957Y018365
X002988Y018365
X013067Y015294
X006925Y018365
X012673Y004940
X007752Y004940
X003972Y018365
X013067Y008404
X018579Y004940
X001020Y018365
X005941Y018365
X007909Y018365
X004602Y008207
X021531Y004940
X008736Y004940
X019563Y004940
X022870Y014270
X013067Y009389
X014642Y004940
X006571Y008207
X011689Y004940
X013657Y004940
X015626Y004940
X009720Y004940
X002004Y018365
X022870Y013286
X017594Y004940
X013067Y013326
X013067Y016278
X022870Y016239
X003618Y008207
X020547Y004940
X022870Y012302
X022516Y004940
X002634Y008207
T102
X021295Y006790
X025295Y006790
T103
X001571Y002578
X003571Y002578
X002571Y004578
T104
X014396Y020018
X012396Y020018
X017996Y001018
X020996Y020018
X023996Y020018
X013996Y001018
X015396Y020018
X017996Y020018
X015996Y001018
X008396Y020018
X019996Y020018
X016996Y001018
X024996Y020018
X021996Y001018
X014996Y001018
X018996Y020018
X022996Y020018
X019996Y001018
X020996Y001018
X013396Y020018
X023996Y001018
X022996Y001018
X010996Y001018
X011996Y001018
X011396Y020018
X021996Y020018
X010396Y020018
X012996Y001018
X009396Y020018
X016396Y020018
X007396Y020018
X024996Y001018
T105
X025193Y005452
X025193Y004467
T00
M30
