G04 MADE WITH FRITZING*
G04 WWW.FRITZING.ORG*
G04 DOUBLE SIDED*
G04 HOLES PLATED*
G04 CONTOUR ON CENTER OF CONTOUR VECTOR*
%ASAXBY*%
%FSLAX23Y23*%
%MOIN*%
%OFA0B0*%
%SFA1.0B1.0*%
%ADD10C,0.049370*%
%ADD11C,0.109000*%
%ADD12C,0.085000*%
%ADD13C,0.089370*%
%ADD14C,0.075278*%
%ADD15C,0.088000*%
%ADD16R,0.109000X0.109000*%
%LNMASK0*%
G90*
G70*
G54D10*
X808Y724D03*
X1208Y423D03*
X1811Y423D03*
X2075Y418D03*
X2251Y194D03*
X1627Y841D03*
X2467Y849D03*
X1748Y1026D03*
X1748Y1419D03*
X1445Y313D03*
X1807Y313D03*
X2185Y313D03*
X2459Y309D03*
X1090Y1451D03*
X1090Y1254D03*
X775Y1754D03*
X1232Y1923D03*
X1366Y1923D03*
X685Y1557D03*
X1089Y1688D03*
X1315Y1726D03*
X1362Y1852D03*
X1637Y1852D03*
X1996Y1415D03*
X1994Y1025D03*
X1031Y1852D03*
X1031Y1691D03*
X1350Y663D03*
X1535Y1695D03*
X756Y1018D03*
X574Y1608D03*
X1334Y199D03*
X1653Y372D03*
X1810Y372D03*
X1992Y718D03*
X1748Y600D03*
G54D11*
X357Y258D03*
X157Y258D03*
X257Y458D03*
G54D12*
X2530Y679D03*
X2130Y679D03*
G54D13*
X263Y821D03*
X362Y821D03*
X460Y821D03*
X559Y821D03*
X657Y821D03*
X2252Y494D03*
X2153Y494D03*
X2055Y494D03*
X1956Y494D03*
X1858Y494D03*
X1759Y494D03*
X1661Y494D03*
X1563Y494D03*
X1464Y494D03*
X1366Y494D03*
X1267Y494D03*
X1169Y494D03*
X1071Y494D03*
X972Y494D03*
X874Y494D03*
X775Y494D03*
X2287Y1230D03*
X2287Y1329D03*
X2287Y1427D03*
X2287Y1526D03*
X2287Y1624D03*
X1307Y1628D03*
X1307Y1529D03*
X1307Y1431D03*
X1307Y1333D03*
X1307Y1234D03*
X1307Y1136D03*
X1307Y1037D03*
X1307Y939D03*
X1307Y840D03*
X791Y1837D03*
X693Y1837D03*
X594Y1837D03*
X496Y1837D03*
X397Y1837D03*
X299Y1837D03*
X200Y1837D03*
X102Y1837D03*
G54D14*
X2100Y102D03*
X2200Y102D03*
X2300Y102D03*
X2400Y102D03*
X2500Y102D03*
X1640Y2002D03*
X1540Y2002D03*
X1440Y2002D03*
X1340Y2002D03*
X1240Y2002D03*
X1140Y2002D03*
X1040Y2002D03*
X940Y2002D03*
X840Y2002D03*
X740Y2002D03*
X2500Y2002D03*
X2400Y2002D03*
X2300Y2002D03*
X2200Y2002D03*
X2100Y2002D03*
X2000Y2002D03*
X1900Y2002D03*
X1800Y2002D03*
X1200Y102D03*
X1100Y102D03*
X1300Y102D03*
X1400Y102D03*
X1500Y102D03*
X1600Y102D03*
X1700Y102D03*
X1800Y102D03*
X2000Y102D03*
G54D15*
X2519Y545D03*
X2519Y447D03*
G54D16*
X157Y258D03*
G04 End of Mask0*
M02*