G04 MADE WITH FRITZING*
G04 WWW.FRITZING.ORG*
G04 DOUBLE SIDED*
G04 HOLES PLATED*
G04 CONTOUR ON CENTER OF CONTOUR VECTOR*
%ASAXBY*%
%FSLAX23Y23*%
%MOIN*%
%OFA0B0*%
%SFA1.0B1.0*%
%ADD10C,0.039370*%
%ADD11C,0.099000*%
%ADD12C,0.075000*%
%ADD13C,0.079370*%
%ADD14C,0.078000*%
%ADD15C,0.065278*%
%ADD16R,0.099000X0.099000*%
%ADD17C,0.024000*%
%LNCOPPER1*%
G90*
G70*
G54D10*
X1352Y642D03*
X1537Y1673D03*
X757Y996D03*
X781Y1906D03*
X462Y1063D03*
X576Y1587D03*
X1336Y177D03*
X1655Y351D03*
X1812Y351D03*
X1994Y697D03*
X1749Y579D03*
G54D11*
X359Y236D03*
X159Y236D03*
X259Y436D03*
G54D12*
X2531Y658D03*
X2131Y658D03*
G54D13*
X265Y799D03*
X364Y799D03*
X462Y799D03*
X560Y799D03*
X659Y799D03*
X2253Y473D03*
X2155Y473D03*
X2057Y473D03*
X1958Y473D03*
X1860Y473D03*
X1761Y473D03*
X1663Y473D03*
X1564Y473D03*
X1466Y473D03*
X1368Y473D03*
X1269Y473D03*
X1171Y473D03*
X1072Y473D03*
X974Y473D03*
X875Y473D03*
X777Y473D03*
X2289Y1209D03*
X2289Y1307D03*
X2289Y1406D03*
X2289Y1504D03*
X2289Y1603D03*
X1309Y1607D03*
X1309Y1508D03*
X1309Y1410D03*
X1309Y1311D03*
X1309Y1213D03*
X1309Y1114D03*
X1309Y1016D03*
X1309Y918D03*
X1309Y819D03*
X793Y1815D03*
X694Y1815D03*
X596Y1815D03*
X498Y1815D03*
X399Y1815D03*
X301Y1815D03*
X202Y1815D03*
X104Y1815D03*
G54D14*
X2521Y524D03*
X2521Y425D03*
G54D10*
X1749Y1004D03*
X1749Y1398D03*
X1446Y292D03*
X1809Y292D03*
X2186Y292D03*
X2461Y288D03*
X1092Y1429D03*
X1092Y1233D03*
X895Y1394D03*
X655Y1063D03*
X777Y1733D03*
X1234Y1902D03*
X1368Y1902D03*
X686Y1536D03*
X1091Y1667D03*
X1316Y1705D03*
X1364Y1831D03*
X1639Y1831D03*
X1998Y1394D03*
X1996Y1004D03*
X1033Y1831D03*
X1033Y1670D03*
X900Y1704D03*
X900Y1820D03*
G54D15*
X2103Y100D03*
X2203Y100D03*
X2303Y100D03*
X2403Y100D03*
X2503Y100D03*
X1643Y2000D03*
X1543Y2000D03*
X1443Y2000D03*
X1343Y2000D03*
X1243Y2000D03*
X1143Y2000D03*
X1043Y2000D03*
X943Y2000D03*
X843Y2000D03*
X743Y2000D03*
X2503Y2000D03*
X2403Y2000D03*
X2303Y2000D03*
X2203Y2000D03*
X2103Y2000D03*
X2003Y2000D03*
X1903Y2000D03*
X1803Y2000D03*
X1203Y100D03*
X1103Y100D03*
X1303Y100D03*
X1403Y100D03*
X1503Y100D03*
X1603Y100D03*
X1703Y100D03*
X1803Y100D03*
X2003Y100D03*
G54D16*
X159Y236D03*
G54D17*
X2003Y307D02*
X2003Y132D01*
D02*
X1966Y443D02*
X2003Y307D01*
D02*
X1222Y1977D02*
X1182Y1933D01*
D02*
X1024Y1493D02*
X1023Y711D01*
D02*
X1143Y1493D02*
X1024Y1493D01*
D02*
X1143Y1969D02*
X1143Y1493D01*
D02*
X1182Y1114D02*
X1278Y1114D01*
D02*
X1182Y1492D02*
X1182Y1114D01*
D02*
X1182Y1933D02*
X1182Y1492D01*
D02*
X1520Y1213D02*
X1339Y1213D01*
D02*
X1520Y711D02*
X1520Y1213D01*
D02*
X1023Y711D02*
X1520Y711D01*
D02*
X596Y1784D02*
X596Y1733D01*
D02*
X259Y642D02*
X1333Y642D01*
D02*
X259Y468D02*
X259Y642D01*
D02*
X1253Y1902D02*
X1349Y1902D01*
D02*
X596Y1733D02*
X758Y1733D01*
D02*
X1542Y1969D02*
X1537Y1692D01*
D02*
X2203Y1808D02*
X2203Y1311D01*
D02*
X2203Y1969D02*
X2203Y1808D01*
D02*
X738Y996D02*
X104Y996D01*
D02*
X2203Y1311D02*
X1339Y1311D01*
D02*
X774Y1923D02*
X754Y1971D01*
D02*
X104Y996D02*
X104Y1784D01*
D02*
X843Y1909D02*
X942Y1909D01*
D02*
X942Y1909D02*
X942Y1628D01*
D02*
X843Y1969D02*
X843Y1909D01*
D02*
X462Y1628D02*
X462Y1082D01*
D02*
X942Y1628D02*
X462Y1628D01*
D02*
X1700Y236D02*
X1702Y132D01*
D02*
X595Y1587D02*
X979Y1587D01*
D02*
X1860Y236D02*
X1700Y236D01*
D02*
X1860Y442D02*
X1860Y236D01*
D02*
X979Y1587D02*
X983Y1905D01*
D02*
X983Y1905D02*
X1026Y1974D01*
D02*
X1793Y351D02*
X1674Y351D01*
D02*
X1355Y177D02*
X1504Y177D01*
D02*
X1504Y177D02*
X1503Y132D01*
D02*
X2131Y1090D02*
X2131Y686D01*
D02*
X1682Y1090D02*
X2131Y1090D01*
D02*
X875Y587D02*
X1682Y587D01*
D02*
X875Y504D02*
X875Y587D01*
D02*
X1682Y587D02*
X1682Y1090D01*
D02*
X2493Y513D02*
X2384Y472D01*
D02*
X2384Y472D02*
X2284Y473D01*
D02*
X1860Y562D02*
X1860Y504D01*
D02*
X2253Y503D02*
X2253Y562D01*
D02*
X2253Y562D02*
X1860Y562D01*
D02*
X2625Y658D02*
X2560Y658D01*
D02*
X2303Y234D02*
X2625Y234D01*
D02*
X2303Y132D02*
X2303Y234D01*
D02*
X2625Y234D02*
X2625Y658D01*
D02*
X1749Y598D02*
X1749Y985D01*
D02*
X1749Y1417D02*
X1749Y1624D01*
D02*
X1749Y1624D02*
X1443Y1624D01*
D02*
X1443Y1624D02*
X1443Y1969D01*
D02*
X1465Y292D02*
X1790Y292D01*
D02*
X2205Y291D02*
X2442Y288D01*
D02*
X1092Y1410D02*
X1092Y1252D01*
D02*
X655Y1082D02*
X655Y1398D01*
D02*
X655Y1398D02*
X876Y1394D01*
D02*
X1091Y1536D02*
X1091Y1648D01*
D02*
X705Y1536D02*
X1091Y1536D01*
D02*
X1335Y1705D02*
X1364Y1705D01*
D02*
X1364Y1705D02*
X1364Y1812D01*
D02*
X1640Y1850D02*
X1642Y1969D01*
D02*
X1998Y1413D02*
X2003Y1969D01*
D02*
X1994Y716D02*
X1996Y985D01*
D02*
X1033Y1689D02*
X1033Y1812D01*
D02*
X900Y1723D02*
X900Y1801D01*
D02*
X1700Y236D02*
X775Y233D01*
D02*
X777Y442D02*
X775Y233D01*
D02*
X2385Y379D02*
X2152Y379D01*
D02*
X2152Y379D02*
X2154Y442D01*
D02*
X2493Y416D02*
X2385Y379D01*
D02*
X391Y236D02*
X775Y233D01*
G04 End of Copper1*
M02*