; NON-PLATED HOLES START AT T1
; THROUGH (PLATED) HOLES START AT T100
M48
INCH
T100C0.035000
T101C0.041000
T102C0.039370
T103C0.015748
T104C0.038000
T105C0.040278
%
T100
X021313Y006577
X025313Y006577
T101
X002589Y004364
X001589Y002364
X003589Y002364
T102
X013085Y015081
X013085Y008191
X005604Y007994
X015644Y004727
X011707Y004727
X013675Y004727
X007770Y004727
X014660Y004727
X016628Y004727
X005959Y018152
X013085Y012128
X002022Y018152
X001038Y018152
X021549Y004727
X013085Y010160
X009738Y004727
X017612Y004727
X013085Y011144
X010723Y004727
X013085Y009175
X007927Y018152
X019581Y004727
X002652Y007994
X008754Y004727
X018597Y004727
X003990Y018152
X003636Y007994
X022888Y014057
X012691Y004727
X006589Y007994
X020565Y004727
X013085Y013112
X013085Y014097
X013085Y016065
X003006Y018152
X022888Y016026
X006943Y018152
X022888Y015041
X004620Y007994
X022888Y013073
X022534Y004727
X004975Y018152
X022888Y012089
T103
X019975Y013939
X005762Y015868
X007809Y019057
X017494Y010041
X016392Y018309
X014463Y002915
X017494Y013978
X013675Y019018
X021864Y002915
X018085Y002915
X013164Y017049
X010919Y014293
X013360Y001774
X016549Y003506
X013518Y006419
X010329Y016695
X013636Y018309
X010910Y016666
X008997Y017044
X019962Y010038
X015368Y016734
X010329Y018309
X010919Y012325
X007770Y017325
X008951Y013939
X017494Y005790
X007573Y009963
X006864Y015356
X024611Y002876
X018119Y003506
X019935Y006971
X008997Y018201
X004620Y010632
X012337Y019018
X006549Y010632
T104
X025211Y005238
X025211Y004254
T105
X011027Y001003
X017027Y001003
X010427Y020003
X008427Y020003
X020027Y001003
X013427Y020003
X016427Y020003
X011427Y020003
X022027Y020003
X015027Y001003
X009427Y020003
X015427Y020003
X023027Y020003
X013027Y001003
X018027Y020003
X007427Y020003
X012427Y020003
X023027Y001003
X012027Y001003
X024027Y001003
X021027Y001003
X019027Y020003
X014427Y020003
X018027Y001003
X014027Y001003
X016027Y001003
X025027Y001003
X025027Y020003
X024027Y020003
X022027Y001003
X020027Y020003
X021027Y020003
T00
M30
